<mxfile host="app.diagrams.net" modified="2023-11-23T23:58:38.431Z" agent="Mozilla/5.0 (Windows NT 10.0; Win64; x64) AppleWebKit/537.36 (KHTML, like Gecko) Chrome/119.0.0.0 Safari/537.36" etag="z3810srBKqhmE3E9HOmt" version="22.1.3" type="google">
  <diagram name="Page-1" id="1ck09jtLdA_UZ45gjzAM">
    <mxGraphModel grid="1" page="1" gridSize="10" guides="1" tooltips="1" connect="1" arrows="1" fold="1" pageScale="1" pageWidth="850" pageHeight="1100" math="0" shadow="0">
      <root>
        <mxCell id="0" />
        <mxCell id="1" parent="0" />
        <mxCell id="BXBDbw9fCn3K_kXdg8fw-1" value="Registered&lt;br&gt;User" style="shape=umlActor;verticalLabelPosition=bottom;verticalAlign=top;html=1;" vertex="1" parent="1">
          <mxGeometry x="350" y="600" width="30" height="60" as="geometry" />
        </mxCell>
        <mxCell id="BXBDbw9fCn3K_kXdg8fw-4" value="Use Case" style="shape=umlFrame;whiteSpace=wrap;html=1;pointerEvents=0;" vertex="1" parent="1">
          <mxGeometry x="270" y="-260" width="1040" height="1670" as="geometry" />
        </mxCell>
        <mxCell id="BXBDbw9fCn3K_kXdg8fw-6" value="&lt;font style=&quot;font-size: 22px;&quot;&gt;Flight Reservation System&lt;/font&gt;" style="text;html=1;align=center;verticalAlign=middle;resizable=0;points=[];autosize=1;strokeColor=none;fillColor=none;fontStyle=1" vertex="1" parent="1">
          <mxGeometry x="270" y="-310" width="300" height="40" as="geometry" />
        </mxCell>
        <mxCell id="BXBDbw9fCn3K_kXdg8fw-7" value="Login" style="ellipse;whiteSpace=wrap;html=1;" vertex="1" parent="1">
          <mxGeometry x="510" y="250" width="140" height="70" as="geometry" />
        </mxCell>
        <mxCell id="BXBDbw9fCn3K_kXdg8fw-8" value="Browse Flights" style="ellipse;whiteSpace=wrap;html=1;" vertex="1" parent="1">
          <mxGeometry x="510" y="150" width="140" height="70" as="geometry" />
        </mxCell>
        <mxCell id="BXBDbw9fCn3K_kXdg8fw-9" value="Select Flight" style="ellipse;whiteSpace=wrap;html=1;" vertex="1" parent="1">
          <mxGeometry x="510" y="60" width="140" height="70" as="geometry" />
        </mxCell>
        <mxCell id="BXBDbw9fCn3K_kXdg8fw-10" value="Browse Seat Map" style="ellipse;whiteSpace=wrap;html=1;" vertex="1" parent="1">
          <mxGeometry x="770" y="60" width="140" height="70" as="geometry" />
        </mxCell>
        <mxCell id="BXBDbw9fCn3K_kXdg8fw-11" value="Select Seat" style="ellipse;whiteSpace=wrap;html=1;" vertex="1" parent="1">
          <mxGeometry x="770" y="160" width="140" height="70" as="geometry" />
        </mxCell>
        <mxCell id="BXBDbw9fCn3K_kXdg8fw-12" value="Select Insurance" style="ellipse;whiteSpace=wrap;html=1;" vertex="1" parent="1">
          <mxGeometry x="770" y="290" width="140" height="70" as="geometry" />
        </mxCell>
        <mxCell id="BXBDbw9fCn3K_kXdg8fw-13" value="Make Payment" style="ellipse;whiteSpace=wrap;html=1;" vertex="1" parent="1">
          <mxGeometry x="770" y="370" width="140" height="70" as="geometry" />
        </mxCell>
        <mxCell id="BXBDbw9fCn3K_kXdg8fw-14" value="Receive Ticket/Receipt" style="ellipse;whiteSpace=wrap;html=1;" vertex="1" parent="1">
          <mxGeometry x="770" y="470" width="140" height="70" as="geometry" />
        </mxCell>
        <mxCell id="BXBDbw9fCn3K_kXdg8fw-15" value="Cancel Flight" style="ellipse;whiteSpace=wrap;html=1;" vertex="1" parent="1">
          <mxGeometry x="770" y="570" width="140" height="70" as="geometry" />
        </mxCell>
        <mxCell id="BXBDbw9fCn3K_kXdg8fw-16" value="Apply for Credit Card" style="ellipse;whiteSpace=wrap;html=1;" vertex="1" parent="1">
          <mxGeometry x="510" y="470" width="140" height="70" as="geometry" />
        </mxCell>
        <mxCell id="BXBDbw9fCn3K_kXdg8fw-17" value="Receive Monthly Promotions" style="ellipse;whiteSpace=wrap;html=1;" vertex="1" parent="1">
          <mxGeometry x="510" y="570" width="140" height="70" as="geometry" />
        </mxCell>
        <mxCell id="BXBDbw9fCn3K_kXdg8fw-18" value="Use Airport Lounges" style="ellipse;whiteSpace=wrap;html=1;" vertex="1" parent="1">
          <mxGeometry x="510" y="680" width="140" height="70" as="geometry" />
        </mxCell>
        <mxCell id="BXBDbw9fCn3K_kXdg8fw-19" value="Receive Free Companion Ticket" style="ellipse;whiteSpace=wrap;html=1;" vertex="1" parent="1">
          <mxGeometry x="510" y="780" width="140" height="70" as="geometry" />
        </mxCell>
        <mxCell id="BXBDbw9fCn3K_kXdg8fw-20" value="Manage Booking" style="ellipse;whiteSpace=wrap;html=1;" vertex="1" parent="1">
          <mxGeometry x="510" y="370" width="140" height="70" as="geometry" />
        </mxCell>
        <mxCell id="BXBDbw9fCn3K_kXdg8fw-21" value="&amp;lt;&amp;lt;include&amp;gt;&amp;gt;" style="endArrow=none;html=1;rounded=0;entryX=1;entryY=0.5;entryDx=0;entryDy=0;exitX=0;exitY=0.5;exitDx=0;exitDy=0;" edge="1" parent="1" source="BXBDbw9fCn3K_kXdg8fw-10" target="BXBDbw9fCn3K_kXdg8fw-20">
          <mxGeometry width="50" height="50" relative="1" as="geometry">
            <mxPoint x="400" y="450" as="sourcePoint" />
            <mxPoint x="450" y="400" as="targetPoint" />
          </mxGeometry>
        </mxCell>
        <mxCell id="BXBDbw9fCn3K_kXdg8fw-22" value="&amp;lt;&amp;lt;include&amp;gt;&amp;gt;" style="endArrow=none;html=1;rounded=0;entryX=1;entryY=0.5;entryDx=0;entryDy=0;exitX=0;exitY=0.5;exitDx=0;exitDy=0;" edge="1" parent="1" source="BXBDbw9fCn3K_kXdg8fw-11" target="BXBDbw9fCn3K_kXdg8fw-20">
          <mxGeometry width="50" height="50" relative="1" as="geometry">
            <mxPoint x="770" y="245" as="sourcePoint" />
            <mxPoint x="660" y="415" as="targetPoint" />
          </mxGeometry>
        </mxCell>
        <mxCell id="BXBDbw9fCn3K_kXdg8fw-23" value="&amp;lt;&amp;lt;extends&amp;gt;&amp;gt;" style="endArrow=none;html=1;rounded=0;entryX=1;entryY=0.5;entryDx=0;entryDy=0;exitX=0;exitY=0.5;exitDx=0;exitDy=0;" edge="1" parent="1" source="BXBDbw9fCn3K_kXdg8fw-12" target="BXBDbw9fCn3K_kXdg8fw-20">
          <mxGeometry width="50" height="50" relative="1" as="geometry">
            <mxPoint x="780" y="345" as="sourcePoint" />
            <mxPoint x="660" y="415" as="targetPoint" />
          </mxGeometry>
        </mxCell>
        <mxCell id="BXBDbw9fCn3K_kXdg8fw-24" value="&amp;lt;&amp;lt;extends&amp;gt;&amp;gt;" style="endArrow=none;html=1;rounded=0;entryX=1;entryY=0.5;entryDx=0;entryDy=0;exitX=0;exitY=0.5;exitDx=0;exitDy=0;" edge="1" parent="1" source="BXBDbw9fCn3K_kXdg8fw-13" target="BXBDbw9fCn3K_kXdg8fw-20">
          <mxGeometry width="50" height="50" relative="1" as="geometry">
            <mxPoint x="790" y="355" as="sourcePoint" />
            <mxPoint x="670" y="425" as="targetPoint" />
            <mxPoint as="offset" />
          </mxGeometry>
        </mxCell>
        <mxCell id="BXBDbw9fCn3K_kXdg8fw-25" value="&amp;lt;&amp;lt;extends&amp;gt;&amp;gt;" style="endArrow=none;html=1;rounded=0;entryX=1;entryY=0.5;entryDx=0;entryDy=0;exitX=0;exitY=0.5;exitDx=0;exitDy=0;" edge="1" parent="1" source="BXBDbw9fCn3K_kXdg8fw-14" target="BXBDbw9fCn3K_kXdg8fw-20">
          <mxGeometry width="50" height="50" relative="1" as="geometry">
            <mxPoint x="800" y="365" as="sourcePoint" />
            <mxPoint x="680" y="435" as="targetPoint" />
          </mxGeometry>
        </mxCell>
        <mxCell id="BXBDbw9fCn3K_kXdg8fw-26" value="&amp;lt;&amp;lt;include&amp;gt;&amp;gt;" style="endArrow=none;html=1;rounded=0;entryX=1;entryY=0.5;entryDx=0;entryDy=0;exitX=0;exitY=0.5;exitDx=0;exitDy=0;" edge="1" parent="1" source="BXBDbw9fCn3K_kXdg8fw-15" target="BXBDbw9fCn3K_kXdg8fw-20">
          <mxGeometry width="50" height="50" relative="1" as="geometry">
            <mxPoint x="810" y="375" as="sourcePoint" />
            <mxPoint x="690" y="445" as="targetPoint" />
          </mxGeometry>
        </mxCell>
        <mxCell id="BXBDbw9fCn3K_kXdg8fw-27" value="User" style="shape=umlActor;verticalLabelPosition=bottom;verticalAlign=top;html=1;" vertex="1" parent="1">
          <mxGeometry x="350" y="205" width="30" height="60" as="geometry" />
        </mxCell>
        <mxCell id="BXBDbw9fCn3K_kXdg8fw-28" value="" style="endArrow=none;html=1;rounded=0;entryX=0.5;entryY=0.5;entryDx=0;entryDy=0;exitX=0;exitY=0.5;exitDx=0;exitDy=0;entryPerimeter=0;" edge="1" parent="1" source="BXBDbw9fCn3K_kXdg8fw-16" target="BXBDbw9fCn3K_kXdg8fw-1">
          <mxGeometry x="0.0029" width="50" height="50" relative="1" as="geometry">
            <mxPoint x="810" y="775" as="sourcePoint" />
            <mxPoint x="660" y="415" as="targetPoint" />
            <mxPoint as="offset" />
          </mxGeometry>
        </mxCell>
        <mxCell id="BXBDbw9fCn3K_kXdg8fw-30" value="" style="endArrow=none;html=1;rounded=0;entryX=0.5;entryY=0.5;entryDx=0;entryDy=0;exitX=0;exitY=0.5;exitDx=0;exitDy=0;entryPerimeter=0;" edge="1" parent="1" source="BXBDbw9fCn3K_kXdg8fw-17" target="BXBDbw9fCn3K_kXdg8fw-1">
          <mxGeometry x="0.0029" width="50" height="50" relative="1" as="geometry">
            <mxPoint x="520" y="515" as="sourcePoint" />
            <mxPoint x="375" y="640" as="targetPoint" />
            <mxPoint as="offset" />
          </mxGeometry>
        </mxCell>
        <mxCell id="BXBDbw9fCn3K_kXdg8fw-31" value="" style="endArrow=none;html=1;rounded=0;entryX=0.5;entryY=0.5;entryDx=0;entryDy=0;exitX=0;exitY=0.5;exitDx=0;exitDy=0;entryPerimeter=0;" edge="1" parent="1" source="BXBDbw9fCn3K_kXdg8fw-18" target="BXBDbw9fCn3K_kXdg8fw-1">
          <mxGeometry x="0.0029" width="50" height="50" relative="1" as="geometry">
            <mxPoint x="520" y="615" as="sourcePoint" />
            <mxPoint x="375" y="640" as="targetPoint" />
            <mxPoint as="offset" />
          </mxGeometry>
        </mxCell>
        <mxCell id="BXBDbw9fCn3K_kXdg8fw-32" value="" style="endArrow=none;html=1;rounded=0;entryX=0.5;entryY=0.5;entryDx=0;entryDy=0;exitX=0;exitY=0.5;exitDx=0;exitDy=0;entryPerimeter=0;" edge="1" parent="1" source="BXBDbw9fCn3K_kXdg8fw-19" target="BXBDbw9fCn3K_kXdg8fw-1">
          <mxGeometry x="0.0029" width="50" height="50" relative="1" as="geometry">
            <mxPoint x="1530" y="585" as="sourcePoint" />
            <mxPoint x="1385" y="400" as="targetPoint" />
            <mxPoint as="offset" />
          </mxGeometry>
        </mxCell>
        <mxCell id="BXBDbw9fCn3K_kXdg8fw-33" value="" style="endArrow=block;endSize=16;endFill=0;html=1;rounded=0;exitX=0.5;exitY=0;exitDx=0;exitDy=0;exitPerimeter=0;" edge="1" parent="1" source="BXBDbw9fCn3K_kXdg8fw-1">
          <mxGeometry width="160" relative="1" as="geometry">
            <mxPoint x="225" y="512.02" as="sourcePoint" />
            <mxPoint x="365" y="290" as="targetPoint" />
            <mxPoint as="offset" />
          </mxGeometry>
        </mxCell>
        <mxCell id="BXBDbw9fCn3K_kXdg8fw-38" value="" style="endArrow=none;html=1;rounded=0;entryX=0.5;entryY=0.5;entryDx=0;entryDy=0;exitX=0;exitY=0.5;exitDx=0;exitDy=0;entryPerimeter=0;" edge="1" parent="1" source="BXBDbw9fCn3K_kXdg8fw-7" target="BXBDbw9fCn3K_kXdg8fw-27">
          <mxGeometry x="0.0029" width="50" height="50" relative="1" as="geometry">
            <mxPoint x="510" y="95" as="sourcePoint" />
            <mxPoint x="365" y="235" as="targetPoint" />
            <mxPoint as="offset" />
          </mxGeometry>
        </mxCell>
        <mxCell id="BXBDbw9fCn3K_kXdg8fw-39" value="" style="endArrow=none;html=1;rounded=0;entryX=0.5;entryY=0.5;entryDx=0;entryDy=0;exitX=0;exitY=0.5;exitDx=0;exitDy=0;entryPerimeter=0;" edge="1" parent="1" source="BXBDbw9fCn3K_kXdg8fw-8" target="BXBDbw9fCn3K_kXdg8fw-27">
          <mxGeometry x="0.0029" width="50" height="50" relative="1" as="geometry">
            <mxPoint x="520" y="105" as="sourcePoint" />
            <mxPoint x="375" y="245" as="targetPoint" />
            <mxPoint as="offset" />
          </mxGeometry>
        </mxCell>
        <mxCell id="BXBDbw9fCn3K_kXdg8fw-40" value="" style="endArrow=none;html=1;rounded=0;entryX=0.5;entryY=0.5;entryDx=0;entryDy=0;exitX=0;exitY=0.5;exitDx=0;exitDy=0;entryPerimeter=0;" edge="1" parent="1" source="BXBDbw9fCn3K_kXdg8fw-9" target="BXBDbw9fCn3K_kXdg8fw-27">
          <mxGeometry x="0.0029" width="50" height="50" relative="1" as="geometry">
            <mxPoint x="520" y="205" as="sourcePoint" />
            <mxPoint x="375" y="245" as="targetPoint" />
            <mxPoint as="offset" />
          </mxGeometry>
        </mxCell>
        <mxCell id="BXBDbw9fCn3K_kXdg8fw-41" value="" style="endArrow=none;html=1;rounded=0;entryX=0.5;entryY=0.5;entryDx=0;entryDy=0;exitX=0;exitY=0.5;exitDx=0;exitDy=0;entryPerimeter=0;" edge="1" parent="1" source="BXBDbw9fCn3K_kXdg8fw-20" target="BXBDbw9fCn3K_kXdg8fw-27">
          <mxGeometry x="0.0029" width="50" height="50" relative="1" as="geometry">
            <mxPoint x="520" y="295" as="sourcePoint" />
            <mxPoint x="375" y="245" as="targetPoint" />
            <mxPoint as="offset" />
          </mxGeometry>
        </mxCell>
        <mxCell id="BXBDbw9fCn3K_kXdg8fw-42" value="System Admin" style="shape=umlActor;verticalLabelPosition=bottom;verticalAlign=top;html=1;" vertex="1" parent="1">
          <mxGeometry x="350" y="1035" width="30" height="60" as="geometry" />
        </mxCell>
        <mxCell id="BXBDbw9fCn3K_kXdg8fw-43" value="Manage Crews and Aircrafts" style="ellipse;whiteSpace=wrap;html=1;" vertex="1" parent="1">
          <mxGeometry x="510" y="1005" width="140" height="70" as="geometry" />
        </mxCell>
        <mxCell id="BXBDbw9fCn3K_kXdg8fw-45" value="Print List of Registered Users" style="ellipse;whiteSpace=wrap;html=1;" vertex="1" parent="1">
          <mxGeometry x="510" y="1215" width="140" height="70" as="geometry" />
        </mxCell>
        <mxCell id="BXBDbw9fCn3K_kXdg8fw-46" value="" style="endArrow=none;html=1;rounded=0;entryX=0.5;entryY=0.5;entryDx=0;entryDy=0;exitX=0;exitY=0.5;exitDx=0;exitDy=0;entryPerimeter=0;" edge="1" parent="1" source="BXBDbw9fCn3K_kXdg8fw-50" target="BXBDbw9fCn3K_kXdg8fw-42">
          <mxGeometry x="0.0029" width="50" height="50" relative="1" as="geometry">
            <mxPoint x="510" y="940" as="sourcePoint" />
            <mxPoint x="660" y="850" as="targetPoint" />
            <mxPoint as="offset" />
          </mxGeometry>
        </mxCell>
        <mxCell id="BXBDbw9fCn3K_kXdg8fw-47" value="" style="endArrow=none;html=1;rounded=0;entryX=0.5;entryY=0.5;entryDx=0;entryDy=0;exitX=0;exitY=0.5;exitDx=0;exitDy=0;entryPerimeter=0;" edge="1" parent="1" source="BXBDbw9fCn3K_kXdg8fw-43" target="BXBDbw9fCn3K_kXdg8fw-42">
          <mxGeometry x="0.0029" width="50" height="50" relative="1" as="geometry">
            <mxPoint x="520" y="950" as="sourcePoint" />
            <mxPoint x="375" y="1075" as="targetPoint" />
            <mxPoint as="offset" />
          </mxGeometry>
        </mxCell>
        <mxCell id="BXBDbw9fCn3K_kXdg8fw-49" value="" style="endArrow=none;html=1;rounded=0;entryX=0.5;entryY=0.5;entryDx=0;entryDy=0;exitX=0;exitY=0.5;exitDx=0;exitDy=0;entryPerimeter=0;" edge="1" parent="1" source="BXBDbw9fCn3K_kXdg8fw-45" target="BXBDbw9fCn3K_kXdg8fw-42">
          <mxGeometry x="0.0029" width="50" height="50" relative="1" as="geometry">
            <mxPoint x="520" y="1160" as="sourcePoint" />
            <mxPoint x="375" y="1075" as="targetPoint" />
            <mxPoint as="offset" />
          </mxGeometry>
        </mxCell>
        <mxCell id="BXBDbw9fCn3K_kXdg8fw-50" value="Manage Flights" style="ellipse;whiteSpace=wrap;html=1;" vertex="1" parent="1">
          <mxGeometry x="510" y="900" width="140" height="70" as="geometry" />
        </mxCell>
        <mxCell id="BXBDbw9fCn3K_kXdg8fw-53" value="Validate Payment" style="ellipse;whiteSpace=wrap;html=1;" vertex="1" parent="1">
          <mxGeometry x="1040" y="370" width="140" height="70" as="geometry" />
        </mxCell>
        <mxCell id="BXBDbw9fCn3K_kXdg8fw-55" value="&amp;lt;&amp;lt;include&amp;gt;&amp;gt;" style="endArrow=none;html=1;rounded=0;entryX=0;entryY=0.5;entryDx=0;entryDy=0;exitX=1;exitY=0.5;exitDx=0;exitDy=0;" edge="1" parent="1" source="BXBDbw9fCn3K_kXdg8fw-13" target="BXBDbw9fCn3K_kXdg8fw-53">
          <mxGeometry width="50" height="50" relative="1" as="geometry">
            <mxPoint x="780" y="415" as="sourcePoint" />
            <mxPoint x="660" y="415" as="targetPoint" />
          </mxGeometry>
        </mxCell>
        <mxCell id="BXBDbw9fCn3K_kXdg8fw-57" value="Bank" style="shape=umlActor;verticalLabelPosition=bottom;verticalAlign=top;html=1;" vertex="1" parent="1">
          <mxGeometry x="1390" y="375" width="30" height="60" as="geometry" />
        </mxCell>
        <mxCell id="BXBDbw9fCn3K_kXdg8fw-59" value="" style="endArrow=none;html=1;rounded=0;entryX=0.5;entryY=0.5;entryDx=0;entryDy=0;exitX=1;exitY=0.5;exitDx=0;exitDy=0;entryPerimeter=0;" edge="1" parent="1" source="BXBDbw9fCn3K_kXdg8fw-53" target="BXBDbw9fCn3K_kXdg8fw-57">
          <mxGeometry x="0.0029" width="50" height="50" relative="1" as="geometry">
            <mxPoint x="520" y="415" as="sourcePoint" />
            <mxPoint x="375" y="245" as="targetPoint" />
            <mxPoint as="offset" />
          </mxGeometry>
        </mxCell>
        <mxCell id="BXBDbw9fCn3K_kXdg8fw-60" value="Airline&lt;br&gt;Agent" style="shape=umlActor;verticalLabelPosition=bottom;verticalAlign=top;html=1;" vertex="1" parent="1">
          <mxGeometry x="350" y="-130" width="30" height="60" as="geometry" />
        </mxCell>
        <mxCell id="BXBDbw9fCn3K_kXdg8fw-62" value="" style="endArrow=none;html=1;rounded=0;entryX=0;entryY=0;entryDx=0;entryDy=0;exitX=0.5;exitY=0.5;exitDx=0;exitDy=0;exitPerimeter=0;" edge="1" parent="1" source="BXBDbw9fCn3K_kXdg8fw-60" target="BXBDbw9fCn3K_kXdg8fw-9">
          <mxGeometry x="0.0029" width="50" height="50" relative="1" as="geometry">
            <mxPoint x="520" y="105" as="sourcePoint" />
            <mxPoint x="375" y="245" as="targetPoint" />
            <mxPoint as="offset" />
          </mxGeometry>
        </mxCell>
        <mxCell id="BXBDbw9fCn3K_kXdg8fw-63" value="" style="endArrow=none;html=1;rounded=0;entryX=0;entryY=0;entryDx=0;entryDy=0;exitX=0.5;exitY=0.5;exitDx=0;exitDy=0;exitPerimeter=0;" edge="1" parent="1" source="BXBDbw9fCn3K_kXdg8fw-60" target="BXBDbw9fCn3K_kXdg8fw-8">
          <mxGeometry x="0.0029" width="50" height="50" relative="1" as="geometry">
            <mxPoint x="375" y="-90" as="sourcePoint" />
            <mxPoint x="520" y="105" as="targetPoint" />
            <mxPoint as="offset" />
          </mxGeometry>
        </mxCell>
        <mxCell id="BXBDbw9fCn3K_kXdg8fw-64" value="Manage Flight Bookings" style="ellipse;whiteSpace=wrap;html=1;" vertex="1" parent="1">
          <mxGeometry x="510" y="-70" width="140" height="70" as="geometry" />
        </mxCell>
        <mxCell id="BXBDbw9fCn3K_kXdg8fw-65" value="&amp;lt;&amp;lt;include&amp;gt;&amp;gt;" style="endArrow=none;html=1;rounded=0;entryX=0;entryY=0;entryDx=0;entryDy=0;exitX=1;exitY=0.5;exitDx=0;exitDy=0;" edge="1" parent="1" source="BXBDbw9fCn3K_kXdg8fw-64" target="BXBDbw9fCn3K_kXdg8fw-10">
          <mxGeometry width="50" height="50" relative="1" as="geometry">
            <mxPoint x="780" y="105" as="sourcePoint" />
            <mxPoint x="660" y="415" as="targetPoint" />
          </mxGeometry>
        </mxCell>
        <mxCell id="BXBDbw9fCn3K_kXdg8fw-66" value="&amp;lt;&amp;lt;include&amp;gt;&amp;gt;" style="endArrow=none;html=1;rounded=0;entryX=0;entryY=0;entryDx=0;entryDy=0;exitX=1;exitY=0.5;exitDx=0;exitDy=0;" edge="1" parent="1" source="BXBDbw9fCn3K_kXdg8fw-64" target="BXBDbw9fCn3K_kXdg8fw-11">
          <mxGeometry width="50" height="50" relative="1" as="geometry">
            <mxPoint x="660" y="-25" as="sourcePoint" />
            <mxPoint x="801" y="80" as="targetPoint" />
          </mxGeometry>
        </mxCell>
        <mxCell id="BXBDbw9fCn3K_kXdg8fw-67" value="Browse Passengers" style="ellipse;whiteSpace=wrap;html=1;" vertex="1" parent="1">
          <mxGeometry x="770" y="-70" width="140" height="70" as="geometry" />
        </mxCell>
        <mxCell id="BXBDbw9fCn3K_kXdg8fw-68" value="&amp;lt;&amp;lt;include&amp;gt;&amp;gt;" style="endArrow=none;html=1;rounded=0;entryX=0;entryY=0.5;entryDx=0;entryDy=0;exitX=1;exitY=0.5;exitDx=0;exitDy=0;" edge="1" parent="1" source="BXBDbw9fCn3K_kXdg8fw-64" target="BXBDbw9fCn3K_kXdg8fw-67">
          <mxGeometry width="50" height="50" relative="1" as="geometry">
            <mxPoint x="660" y="-25" as="sourcePoint" />
            <mxPoint x="801" y="80" as="targetPoint" />
          </mxGeometry>
        </mxCell>
        <mxCell id="BXBDbw9fCn3K_kXdg8fw-69" value="" style="endArrow=none;html=1;rounded=0;entryX=0;entryY=0.5;entryDx=0;entryDy=0;exitX=0.5;exitY=0.5;exitDx=0;exitDy=0;exitPerimeter=0;" edge="1" parent="1" source="BXBDbw9fCn3K_kXdg8fw-60" target="BXBDbw9fCn3K_kXdg8fw-64">
          <mxGeometry x="0.0029" width="50" height="50" relative="1" as="geometry">
            <mxPoint x="375" y="-90" as="sourcePoint" />
            <mxPoint x="541" y="80" as="targetPoint" />
            <mxPoint as="offset" />
          </mxGeometry>
        </mxCell>
        <mxCell id="BXBDbw9fCn3K_kXdg8fw-74" value="Cancel Flights" style="ellipse;whiteSpace=wrap;html=1;" vertex="1" parent="1">
          <mxGeometry x="1020" y="-70" width="140" height="70" as="geometry" />
        </mxCell>
        <mxCell id="BXBDbw9fCn3K_kXdg8fw-76" value="&amp;lt;&amp;lt;include&amp;gt;&amp;gt;" style="endArrow=none;html=1;rounded=0;entryX=0;entryY=0.5;entryDx=0;entryDy=0;exitX=1;exitY=0.5;exitDx=0;exitDy=0;" edge="1" parent="1" source="BXBDbw9fCn3K_kXdg8fw-50" target="BXBDbw9fCn3K_kXdg8fw-77">
          <mxGeometry width="50" height="50" relative="1" as="geometry">
            <mxPoint x="780" y="615" as="sourcePoint" />
            <mxPoint x="660" y="415" as="targetPoint" />
          </mxGeometry>
        </mxCell>
        <mxCell id="BXBDbw9fCn3K_kXdg8fw-77" value="Filter Flights" style="ellipse;whiteSpace=wrap;html=1;" vertex="1" parent="1">
          <mxGeometry x="780" y="680" width="140" height="70" as="geometry" />
        </mxCell>
        <mxCell id="BXBDbw9fCn3K_kXdg8fw-78" value="Add/Remove/Modify&lt;br&gt;Flight Information" style="ellipse;whiteSpace=wrap;html=1;" vertex="1" parent="1">
          <mxGeometry x="780" y="780" width="140" height="70" as="geometry" />
        </mxCell>
        <mxCell id="BXBDbw9fCn3K_kXdg8fw-79" value="&amp;lt;&amp;lt;include&amp;gt;&amp;gt;" style="endArrow=none;html=1;rounded=0;entryX=0;entryY=0.5;entryDx=0;entryDy=0;exitX=1;exitY=0.5;exitDx=0;exitDy=0;" edge="1" parent="1" source="BXBDbw9fCn3K_kXdg8fw-50" target="BXBDbw9fCn3K_kXdg8fw-78">
          <mxGeometry width="50" height="50" relative="1" as="geometry">
            <mxPoint x="660" y="945" as="sourcePoint" />
            <mxPoint x="790" y="875" as="targetPoint" />
          </mxGeometry>
        </mxCell>
        <mxCell id="BXBDbw9fCn3K_kXdg8fw-80" value="Browse Crews" style="ellipse;whiteSpace=wrap;html=1;" vertex="1" parent="1">
          <mxGeometry x="780" y="970" width="140" height="70" as="geometry" />
        </mxCell>
        <mxCell id="BXBDbw9fCn3K_kXdg8fw-81" value="Browse Aircrafts" style="ellipse;whiteSpace=wrap;html=1;" vertex="1" parent="1">
          <mxGeometry x="780" y="1065" width="140" height="70" as="geometry" />
        </mxCell>
        <mxCell id="BXBDbw9fCn3K_kXdg8fw-82" value="Add/Remove/Modify&lt;br style=&quot;border-color: var(--border-color);&quot;&gt;Aircraft information" style="ellipse;whiteSpace=wrap;html=1;" vertex="1" parent="1">
          <mxGeometry x="780" y="1160" width="140" height="70" as="geometry" />
        </mxCell>
        <mxCell id="BXBDbw9fCn3K_kXdg8fw-83" value="&amp;lt;&amp;lt;include&amp;gt;&amp;gt;" style="endArrow=none;html=1;rounded=0;entryX=0;entryY=0.5;entryDx=0;entryDy=0;exitX=1;exitY=0.5;exitDx=0;exitDy=0;" edge="1" parent="1" source="BXBDbw9fCn3K_kXdg8fw-43" target="BXBDbw9fCn3K_kXdg8fw-80">
          <mxGeometry width="50" height="50" relative="1" as="geometry">
            <mxPoint x="820" y="1195" as="sourcePoint" />
            <mxPoint x="960" y="980" as="targetPoint" />
          </mxGeometry>
        </mxCell>
        <mxCell id="BXBDbw9fCn3K_kXdg8fw-84" value="&amp;lt;&amp;lt;include&amp;gt;&amp;gt;" style="endArrow=none;html=1;rounded=0;entryX=0;entryY=0.5;entryDx=0;entryDy=0;exitX=1;exitY=0.5;exitDx=0;exitDy=0;" edge="1" parent="1" source="BXBDbw9fCn3K_kXdg8fw-43" target="BXBDbw9fCn3K_kXdg8fw-81">
          <mxGeometry width="50" height="50" relative="1" as="geometry">
            <mxPoint x="820" y="1195" as="sourcePoint" />
            <mxPoint x="960" y="1080" as="targetPoint" />
          </mxGeometry>
        </mxCell>
        <mxCell id="BXBDbw9fCn3K_kXdg8fw-85" value="&amp;lt;&amp;lt;include&amp;gt;&amp;gt;" style="endArrow=none;html=1;rounded=0;entryX=0;entryY=0.5;entryDx=0;entryDy=0;exitX=1;exitY=0.5;exitDx=0;exitDy=0;" edge="1" parent="1" source="BXBDbw9fCn3K_kXdg8fw-43" target="BXBDbw9fCn3K_kXdg8fw-82">
          <mxGeometry width="50" height="50" relative="1" as="geometry">
            <mxPoint x="820" y="1195" as="sourcePoint" />
            <mxPoint x="960" y="1175" as="targetPoint" />
          </mxGeometry>
        </mxCell>
        <mxCell id="BXBDbw9fCn3K_kXdg8fw-86" value="Manage Destinations" style="ellipse;whiteSpace=wrap;html=1;" vertex="1" parent="1">
          <mxGeometry x="780" y="870" width="140" height="70" as="geometry" />
        </mxCell>
        <mxCell id="BXBDbw9fCn3K_kXdg8fw-87" value="&amp;lt;&amp;lt;include&amp;gt;&amp;gt;" style="endArrow=none;html=1;rounded=0;entryX=0;entryY=0.5;entryDx=0;entryDy=0;exitX=1;exitY=0.5;exitDx=0;exitDy=0;" edge="1" parent="1" source="BXBDbw9fCn3K_kXdg8fw-50" target="BXBDbw9fCn3K_kXdg8fw-86">
          <mxGeometry width="50" height="50" relative="1" as="geometry">
            <mxPoint x="660" y="945" as="sourcePoint" />
            <mxPoint x="790" y="825" as="targetPoint" />
          </mxGeometry>
        </mxCell>
        <mxCell id="BXBDbw9fCn3K_kXdg8fw-88" value="Add/Remove/Modify&lt;br style=&quot;border-color: var(--border-color);&quot;&gt;Crew information" style="ellipse;whiteSpace=wrap;html=1;" vertex="1" parent="1">
          <mxGeometry x="780" y="1240" width="140" height="70" as="geometry" />
        </mxCell>
        <mxCell id="BXBDbw9fCn3K_kXdg8fw-89" value="&amp;lt;&amp;lt;include&amp;gt;&amp;gt;" style="endArrow=none;html=1;rounded=0;entryX=0;entryY=0.5;entryDx=0;entryDy=0;exitX=1;exitY=0.5;exitDx=0;exitDy=0;" edge="1" parent="1" source="BXBDbw9fCn3K_kXdg8fw-43" target="BXBDbw9fCn3K_kXdg8fw-88">
          <mxGeometry width="50" height="50" relative="1" as="geometry">
            <mxPoint x="660" y="1050" as="sourcePoint" />
            <mxPoint x="790" y="1205" as="targetPoint" />
          </mxGeometry>
        </mxCell>
        <mxCell id="BXBDbw9fCn3K_kXdg8fw-90" value="&amp;lt;&amp;lt;extends&amp;gt;&amp;gt;" style="endArrow=none;html=1;rounded=0;entryX=1;entryY=0.5;entryDx=0;entryDy=0;exitX=0;exitY=0.5;exitDx=0;exitDy=0;" edge="1" parent="1" source="BXBDbw9fCn3K_kXdg8fw-74" target="BXBDbw9fCn3K_kXdg8fw-67">
          <mxGeometry width="50" height="50" relative="1" as="geometry">
            <mxPoint x="990" y="-40" as="sourcePoint" />
            <mxPoint x="960" y="-10" as="targetPoint" />
            <mxPoint as="offset" />
          </mxGeometry>
        </mxCell>
        <mxCell id="Ita-3rXcEoMlcefwzyrw-1" value="Registered&lt;br&gt;User" style="shape=umlActor;verticalLabelPosition=bottom;verticalAlign=top;html=1;" vertex="1" parent="1">
          <mxGeometry x="350" y="2430" width="30" height="60" as="geometry" />
        </mxCell>
        <mxCell id="Ita-3rXcEoMlcefwzyrw-2" value="Use Case" style="shape=umlFrame;whiteSpace=wrap;html=1;pointerEvents=0;" vertex="1" parent="1">
          <mxGeometry x="270" y="1540" width="1040" height="1670" as="geometry" />
        </mxCell>
        <mxCell id="Ita-3rXcEoMlcefwzyrw-3" value="&lt;font style=&quot;font-size: 22px;&quot;&gt;Flight Reservation System - v2?&lt;/font&gt;" style="text;html=1;align=center;verticalAlign=middle;resizable=0;points=[];autosize=1;strokeColor=none;fillColor=none;fontStyle=1" vertex="1" parent="1">
          <mxGeometry x="270" y="1490" width="360" height="40" as="geometry" />
        </mxCell>
        <mxCell id="Ita-3rXcEoMlcefwzyrw-4" value="Login" style="ellipse;whiteSpace=wrap;html=1;" vertex="1" parent="1">
          <mxGeometry x="510" y="1830" width="140" height="70" as="geometry" />
        </mxCell>
        <mxCell id="Ita-3rXcEoMlcefwzyrw-5" value="Browse Flights" style="ellipse;whiteSpace=wrap;html=1;" vertex="1" parent="1">
          <mxGeometry x="510" y="1995" width="140" height="70" as="geometry" />
        </mxCell>
        <mxCell id="Ita-3rXcEoMlcefwzyrw-6" value="Select Flight" style="ellipse;whiteSpace=wrap;html=1;" vertex="1" parent="1">
          <mxGeometry x="510" y="1910" width="140" height="70" as="geometry" />
        </mxCell>
        <mxCell id="Ita-3rXcEoMlcefwzyrw-7" value="Browse, Select Seat and Insurance" style="ellipse;whiteSpace=wrap;html=1;" vertex="1" parent="1">
          <mxGeometry x="510" y="2080" width="140" height="70" as="geometry" />
        </mxCell>
        <mxCell id="Ita-3rXcEoMlcefwzyrw-10" value="Make Payment, Receive Ticket &amp;amp; Receipt" style="ellipse;whiteSpace=wrap;html=1;" vertex="1" parent="1">
          <mxGeometry x="510" y="2160" width="140" height="70" as="geometry" />
        </mxCell>
        <mxCell id="Ita-3rXcEoMlcefwzyrw-13" value="Apply for Credit Card" style="ellipse;whiteSpace=wrap;html=1;" vertex="1" parent="1">
          <mxGeometry x="510" y="2320" width="140" height="70" as="geometry" />
        </mxCell>
        <mxCell id="Ita-3rXcEoMlcefwzyrw-14" value="Receive Monthly Promotions" style="ellipse;whiteSpace=wrap;html=1;" vertex="1" parent="1">
          <mxGeometry x="510" y="2400" width="140" height="70" as="geometry" />
        </mxCell>
        <mxCell id="Ita-3rXcEoMlcefwzyrw-16" value="Claim&amp;nbsp; Companion Ticket" style="ellipse;whiteSpace=wrap;html=1;" vertex="1" parent="1">
          <mxGeometry x="510" y="2480" width="140" height="70" as="geometry" />
        </mxCell>
        <mxCell id="Ita-3rXcEoMlcefwzyrw-24" value="User" style="shape=umlActor;verticalLabelPosition=bottom;verticalAlign=top;html=1;" vertex="1" parent="1">
          <mxGeometry x="350" y="2005" width="30" height="60" as="geometry" />
        </mxCell>
        <mxCell id="Ita-3rXcEoMlcefwzyrw-25" value="" style="endArrow=none;html=1;rounded=0;entryX=0.5;entryY=0.5;entryDx=0;entryDy=0;exitX=0;exitY=0.5;exitDx=0;exitDy=0;entryPerimeter=0;" edge="1" parent="1" source="Ita-3rXcEoMlcefwzyrw-13" target="Ita-3rXcEoMlcefwzyrw-1">
          <mxGeometry x="0.0029" width="50" height="50" relative="1" as="geometry">
            <mxPoint x="810" y="2605" as="sourcePoint" />
            <mxPoint x="660" y="2245" as="targetPoint" />
            <mxPoint as="offset" />
          </mxGeometry>
        </mxCell>
        <mxCell id="Ita-3rXcEoMlcefwzyrw-26" value="" style="endArrow=none;html=1;rounded=0;entryX=0.5;entryY=0.5;entryDx=0;entryDy=0;exitX=0;exitY=0.5;exitDx=0;exitDy=0;entryPerimeter=0;" edge="1" parent="1" source="Ita-3rXcEoMlcefwzyrw-14" target="Ita-3rXcEoMlcefwzyrw-1">
          <mxGeometry x="0.0029" width="50" height="50" relative="1" as="geometry">
            <mxPoint x="520" y="2345" as="sourcePoint" />
            <mxPoint x="375" y="2470" as="targetPoint" />
            <mxPoint as="offset" />
          </mxGeometry>
        </mxCell>
        <mxCell id="Ita-3rXcEoMlcefwzyrw-28" value="" style="endArrow=none;html=1;rounded=0;entryX=0.5;entryY=0.5;entryDx=0;entryDy=0;exitX=0;exitY=0.5;exitDx=0;exitDy=0;entryPerimeter=0;" edge="1" parent="1" source="Ita-3rXcEoMlcefwzyrw-16" target="Ita-3rXcEoMlcefwzyrw-1">
          <mxGeometry x="0.0029" width="50" height="50" relative="1" as="geometry">
            <mxPoint x="1530" y="2415" as="sourcePoint" />
            <mxPoint x="1385" y="2230" as="targetPoint" />
            <mxPoint as="offset" />
          </mxGeometry>
        </mxCell>
        <mxCell id="Ita-3rXcEoMlcefwzyrw-29" value="" style="endArrow=block;endSize=16;endFill=0;html=1;rounded=0;exitX=0.5;exitY=0;exitDx=0;exitDy=0;exitPerimeter=0;" edge="1" parent="1" source="Ita-3rXcEoMlcefwzyrw-1">
          <mxGeometry width="160" relative="1" as="geometry">
            <mxPoint x="225" y="2342.02" as="sourcePoint" />
            <mxPoint x="365" y="2090" as="targetPoint" />
            <mxPoint as="offset" />
          </mxGeometry>
        </mxCell>
        <mxCell id="Ita-3rXcEoMlcefwzyrw-30" value="" style="endArrow=none;html=1;rounded=0;entryX=0.5;entryY=0.5;entryDx=0;entryDy=0;exitX=0;exitY=0.5;exitDx=0;exitDy=0;entryPerimeter=0;" edge="1" parent="1" source="Ita-3rXcEoMlcefwzyrw-4" target="Ita-3rXcEoMlcefwzyrw-24">
          <mxGeometry x="0.0029" width="50" height="50" relative="1" as="geometry">
            <mxPoint x="510" y="1895" as="sourcePoint" />
            <mxPoint x="365" y="2035" as="targetPoint" />
            <mxPoint as="offset" />
          </mxGeometry>
        </mxCell>
        <mxCell id="Ita-3rXcEoMlcefwzyrw-31" value="" style="endArrow=none;html=1;rounded=0;entryX=0.5;entryY=0.5;entryDx=0;entryDy=0;exitX=0;exitY=0.5;exitDx=0;exitDy=0;entryPerimeter=0;" edge="1" parent="1" source="Ita-3rXcEoMlcefwzyrw-5" target="Ita-3rXcEoMlcefwzyrw-24">
          <mxGeometry x="0.0029" width="50" height="50" relative="1" as="geometry">
            <mxPoint x="520" y="1905" as="sourcePoint" />
            <mxPoint x="375" y="2045" as="targetPoint" />
            <mxPoint as="offset" />
          </mxGeometry>
        </mxCell>
        <mxCell id="Ita-3rXcEoMlcefwzyrw-32" value="" style="endArrow=none;html=1;rounded=0;entryX=0.5;entryY=0.5;entryDx=0;entryDy=0;exitX=0;exitY=0.5;exitDx=0;exitDy=0;entryPerimeter=0;" edge="1" parent="1" source="Ita-3rXcEoMlcefwzyrw-6" target="Ita-3rXcEoMlcefwzyrw-24">
          <mxGeometry x="0.0029" width="50" height="50" relative="1" as="geometry">
            <mxPoint x="520" y="2005" as="sourcePoint" />
            <mxPoint x="375" y="2045" as="targetPoint" />
            <mxPoint as="offset" />
          </mxGeometry>
        </mxCell>
        <mxCell id="Ita-3rXcEoMlcefwzyrw-33" value="" style="endArrow=none;html=1;rounded=0;entryX=0.5;entryY=0.5;entryDx=0;entryDy=0;exitX=0;exitY=0.5;exitDx=0;exitDy=0;entryPerimeter=0;" edge="1" parent="1" source="Ita-3rXcEoMlcefwzyrw-7" target="Ita-3rXcEoMlcefwzyrw-24">
          <mxGeometry x="0.0029" width="50" height="50" relative="1" as="geometry">
            <mxPoint x="510.00000000000296" y="2205" as="sourcePoint" />
            <mxPoint x="375" y="2045" as="targetPoint" />
            <mxPoint as="offset" />
          </mxGeometry>
        </mxCell>
        <mxCell id="Ita-3rXcEoMlcefwzyrw-34" value="System Admin" style="shape=umlActor;verticalLabelPosition=bottom;verticalAlign=top;html=1;" vertex="1" parent="1">
          <mxGeometry x="350" y="2705" width="30" height="60" as="geometry" />
        </mxCell>
        <mxCell id="Ita-3rXcEoMlcefwzyrw-36" value="Print List of Registered Users" style="ellipse;whiteSpace=wrap;html=1;" vertex="1" parent="1">
          <mxGeometry x="510" y="2885" width="140" height="70" as="geometry" />
        </mxCell>
        <mxCell id="Ita-3rXcEoMlcefwzyrw-37" value="" style="endArrow=none;html=1;rounded=0;entryX=0.5;entryY=0.5;entryDx=0;entryDy=0;exitX=0;exitY=0.5;exitDx=0;exitDy=0;entryPerimeter=0;" edge="1" parent="1" target="Ita-3rXcEoMlcefwzyrw-34">
          <mxGeometry x="0.0029" width="50" height="50" relative="1" as="geometry">
            <mxPoint x="510.00000000000296" y="2605" as="sourcePoint" />
            <mxPoint x="660" y="2520" as="targetPoint" />
            <mxPoint as="offset" />
          </mxGeometry>
        </mxCell>
        <mxCell id="Ita-3rXcEoMlcefwzyrw-38" value="" style="endArrow=none;html=1;rounded=0;entryX=0.5;entryY=0.5;entryDx=0;entryDy=0;exitX=0;exitY=0.5;exitDx=0;exitDy=0;entryPerimeter=0;" edge="1" parent="1" source="Ita-3rXcEoMlcefwzyrw-65" target="Ita-3rXcEoMlcefwzyrw-34">
          <mxGeometry x="0.0029" width="50" height="50" relative="1" as="geometry">
            <mxPoint x="510.00000000000296" y="2710" as="sourcePoint" />
            <mxPoint x="375" y="2745" as="targetPoint" />
            <mxPoint as="offset" />
          </mxGeometry>
        </mxCell>
        <mxCell id="Ita-3rXcEoMlcefwzyrw-39" value="" style="endArrow=none;html=1;rounded=0;entryX=0.5;entryY=0.5;entryDx=0;entryDy=0;exitX=0;exitY=0.5;exitDx=0;exitDy=0;entryPerimeter=0;" edge="1" parent="1" source="Ita-3rXcEoMlcefwzyrw-36" target="Ita-3rXcEoMlcefwzyrw-34">
          <mxGeometry x="0.0029" width="50" height="50" relative="1" as="geometry">
            <mxPoint x="520" y="2830" as="sourcePoint" />
            <mxPoint x="375" y="2745" as="targetPoint" />
            <mxPoint as="offset" />
          </mxGeometry>
        </mxCell>
        <mxCell id="Ita-3rXcEoMlcefwzyrw-41" value="Validate Payment or Refund" style="ellipse;whiteSpace=wrap;html=1;" vertex="1" parent="1">
          <mxGeometry x="750" y="2240" width="140" height="70" as="geometry" />
        </mxCell>
        <mxCell id="Ita-3rXcEoMlcefwzyrw-43" value="Bank" style="shape=umlActor;verticalLabelPosition=bottom;verticalAlign=top;html=1;" vertex="1" parent="1">
          <mxGeometry x="970" y="2245" width="30" height="60" as="geometry" />
        </mxCell>
        <mxCell id="Ita-3rXcEoMlcefwzyrw-44" value="" style="endArrow=none;html=1;rounded=0;entryX=0.5;entryY=0.5;entryDx=0;entryDy=0;exitX=1;exitY=0.5;exitDx=0;exitDy=0;entryPerimeter=0;" edge="1" parent="1" source="Ita-3rXcEoMlcefwzyrw-41" target="Ita-3rXcEoMlcefwzyrw-43">
          <mxGeometry x="0.0029" width="50" height="50" relative="1" as="geometry">
            <mxPoint x="290" y="2285" as="sourcePoint" />
            <mxPoint x="145" y="2115" as="targetPoint" />
            <mxPoint as="offset" />
          </mxGeometry>
        </mxCell>
        <mxCell id="Ita-3rXcEoMlcefwzyrw-45" value="Airline&lt;br&gt;Agent" style="shape=umlActor;verticalLabelPosition=bottom;verticalAlign=top;html=1;" vertex="1" parent="1">
          <mxGeometry x="890" y="2000" width="30" height="60" as="geometry" />
        </mxCell>
        <mxCell id="Ita-3rXcEoMlcefwzyrw-48" value="Browse Passengers" style="ellipse;whiteSpace=wrap;html=1;" vertex="1" parent="1">
          <mxGeometry x="510" y="1680" width="140" height="70" as="geometry" />
        </mxCell>
        <mxCell id="Ita-3rXcEoMlcefwzyrw-53" value="" style="endArrow=none;html=1;rounded=0;entryX=1;entryY=0.5;entryDx=0;entryDy=0;exitX=0.5;exitY=0.5;exitDx=0;exitDy=0;exitPerimeter=0;" edge="1" parent="1" source="Ita-3rXcEoMlcefwzyrw-45" target="Ita-3rXcEoMlcefwzyrw-48">
          <mxGeometry x="0.0029" width="50" height="50" relative="1" as="geometry">
            <mxPoint x="375" y="1800" as="sourcePoint" />
            <mxPoint x="541" y="1970" as="targetPoint" />
            <mxPoint as="offset" />
          </mxGeometry>
        </mxCell>
        <mxCell id="Ita-3rXcEoMlcefwzyrw-54" value="Cancel Flight" style="ellipse;whiteSpace=wrap;html=1;" vertex="1" parent="1">
          <mxGeometry x="510" y="2240" width="140" height="70" as="geometry" />
        </mxCell>
        <mxCell id="Ita-3rXcEoMlcefwzyrw-57" value="Search and Manage&lt;br&gt;Flight Information" style="ellipse;whiteSpace=wrap;html=1;" vertex="1" parent="1">
          <mxGeometry x="510" y="2570" width="140" height="70" as="geometry" />
        </mxCell>
        <mxCell id="Ita-3rXcEoMlcefwzyrw-61" value="Browse and Manage Aircrafts" style="ellipse;whiteSpace=wrap;html=1;" vertex="1" parent="1">
          <mxGeometry x="510" y="2730" width="140" height="70" as="geometry" />
        </mxCell>
        <mxCell id="Ita-3rXcEoMlcefwzyrw-65" value="Manage Destinations" style="ellipse;whiteSpace=wrap;html=1;" vertex="1" parent="1">
          <mxGeometry x="510" y="2650" width="140" height="70" as="geometry" />
        </mxCell>
        <mxCell id="Ita-3rXcEoMlcefwzyrw-67" value="Browse and Manage Crews" style="ellipse;whiteSpace=wrap;html=1;" vertex="1" parent="1">
          <mxGeometry x="510" y="2810" width="140" height="70" as="geometry" />
        </mxCell>
        <mxCell id="Ita-3rXcEoMlcefwzyrw-72" value="" style="endArrow=none;html=1;rounded=0;entryX=0.5;entryY=0.5;entryDx=0;entryDy=0;exitX=0;exitY=0.5;exitDx=0;exitDy=0;entryPerimeter=0;" edge="1" parent="1" source="Ita-3rXcEoMlcefwzyrw-54" target="Ita-3rXcEoMlcefwzyrw-24">
          <mxGeometry x="0.0029" width="50" height="50" relative="1" as="geometry">
            <mxPoint x="520" y="1905" as="sourcePoint" />
            <mxPoint x="375" y="2045" as="targetPoint" />
            <mxPoint as="offset" />
          </mxGeometry>
        </mxCell>
        <mxCell id="Ita-3rXcEoMlcefwzyrw-73" value="Register" style="ellipse;whiteSpace=wrap;html=1;" vertex="1" parent="1">
          <mxGeometry x="510" y="1755" width="140" height="70" as="geometry" />
        </mxCell>
        <mxCell id="Ita-3rXcEoMlcefwzyrw-74" value="" style="endArrow=none;html=1;rounded=0;entryX=0.5;entryY=0.5;entryDx=0;entryDy=0;exitX=0;exitY=0.5;exitDx=0;exitDy=0;entryPerimeter=0;" edge="1" parent="1" source="Ita-3rXcEoMlcefwzyrw-73" target="Ita-3rXcEoMlcefwzyrw-24">
          <mxGeometry x="0.0029" width="50" height="50" relative="1" as="geometry">
            <mxPoint x="520" y="1875" as="sourcePoint" />
            <mxPoint x="375" y="2045" as="targetPoint" />
            <mxPoint as="offset" />
          </mxGeometry>
        </mxCell>
        <mxCell id="Ita-3rXcEoMlcefwzyrw-75" value="" style="endArrow=none;html=1;rounded=0;entryX=0.5;entryY=0.5;entryDx=0;entryDy=0;exitX=0;exitY=0.5;exitDx=0;exitDy=0;entryPerimeter=0;" edge="1" parent="1" source="Ita-3rXcEoMlcefwzyrw-61" target="Ita-3rXcEoMlcefwzyrw-34">
          <mxGeometry x="0.0029" width="50" height="50" relative="1" as="geometry">
            <mxPoint x="520" y="2695" as="sourcePoint" />
            <mxPoint x="375" y="2745" as="targetPoint" />
            <mxPoint as="offset" />
          </mxGeometry>
        </mxCell>
        <mxCell id="Ita-3rXcEoMlcefwzyrw-76" value="" style="endArrow=none;html=1;rounded=0;entryX=0.5;entryY=0.5;entryDx=0;entryDy=0;exitX=0;exitY=0.5;exitDx=0;exitDy=0;entryPerimeter=0;" edge="1" parent="1" source="Ita-3rXcEoMlcefwzyrw-67" target="Ita-3rXcEoMlcefwzyrw-34">
          <mxGeometry x="0.0029" width="50" height="50" relative="1" as="geometry">
            <mxPoint x="520" y="2775" as="sourcePoint" />
            <mxPoint x="375" y="2745" as="targetPoint" />
            <mxPoint as="offset" />
          </mxGeometry>
        </mxCell>
        <mxCell id="Ita-3rXcEoMlcefwzyrw-78" value="" style="endArrow=none;html=1;rounded=0;entryX=0.5;entryY=0.5;entryDx=0;entryDy=0;exitX=0;exitY=0.5;exitDx=0;exitDy=0;entryPerimeter=0;" edge="1" parent="1" source="Ita-3rXcEoMlcefwzyrw-10" target="Ita-3rXcEoMlcefwzyrw-24">
          <mxGeometry x="0.0029" width="50" height="50" relative="1" as="geometry">
            <mxPoint x="520.000000000003" y="2215" as="sourcePoint" />
            <mxPoint x="375" y="2045" as="targetPoint" />
            <mxPoint as="offset" />
          </mxGeometry>
        </mxCell>
        <mxCell id="Ita-3rXcEoMlcefwzyrw-80" value="" style="endArrow=none;html=1;rounded=0;entryX=1;entryY=0.5;entryDx=0;entryDy=0;exitX=0.5;exitY=0.5;exitDx=0;exitDy=0;exitPerimeter=0;" edge="1" parent="1" source="Ita-3rXcEoMlcefwzyrw-45" target="Ita-3rXcEoMlcefwzyrw-4">
          <mxGeometry x="0.0029" width="50" height="50" relative="1" as="geometry">
            <mxPoint x="1025" y="1865" as="sourcePoint" />
            <mxPoint x="660" y="1725" as="targetPoint" />
            <mxPoint as="offset" />
          </mxGeometry>
        </mxCell>
        <mxCell id="Ita-3rXcEoMlcefwzyrw-81" value="" style="endArrow=none;html=1;rounded=0;entryX=1;entryY=0.5;entryDx=0;entryDy=0;exitX=0.5;exitY=0.5;exitDx=0;exitDy=0;exitPerimeter=0;" edge="1" parent="1" source="Ita-3rXcEoMlcefwzyrw-45" target="Ita-3rXcEoMlcefwzyrw-6">
          <mxGeometry x="0.0029" width="50" height="50" relative="1" as="geometry">
            <mxPoint x="1025" y="1865" as="sourcePoint" />
            <mxPoint x="660" y="1875" as="targetPoint" />
            <mxPoint as="offset" />
          </mxGeometry>
        </mxCell>
        <mxCell id="Ita-3rXcEoMlcefwzyrw-82" value="" style="endArrow=none;html=1;rounded=0;entryX=1;entryY=0.5;entryDx=0;entryDy=0;exitX=0.5;exitY=0.5;exitDx=0;exitDy=0;exitPerimeter=0;" edge="1" parent="1" source="Ita-3rXcEoMlcefwzyrw-45" target="Ita-3rXcEoMlcefwzyrw-5">
          <mxGeometry x="0.0029" width="50" height="50" relative="1" as="geometry">
            <mxPoint x="1035" y="1875" as="sourcePoint" />
            <mxPoint x="670" y="1885" as="targetPoint" />
            <mxPoint as="offset" />
          </mxGeometry>
        </mxCell>
        <mxCell id="Ita-3rXcEoMlcefwzyrw-83" value="" style="endArrow=none;html=1;rounded=0;entryX=1;entryY=0.5;entryDx=0;entryDy=0;exitX=0.5;exitY=0.5;exitDx=0;exitDy=0;exitPerimeter=0;" edge="1" parent="1" source="Ita-3rXcEoMlcefwzyrw-45" target="Ita-3rXcEoMlcefwzyrw-54">
          <mxGeometry x="0.0029" width="50" height="50" relative="1" as="geometry">
            <mxPoint x="1045" y="1885" as="sourcePoint" />
            <mxPoint x="680" y="1895" as="targetPoint" />
            <mxPoint as="offset" />
          </mxGeometry>
        </mxCell>
        <mxCell id="Ita-3rXcEoMlcefwzyrw-84" value="" style="endArrow=none;html=1;rounded=0;entryX=1;entryY=0.5;entryDx=0;entryDy=0;exitX=0.5;exitY=0.5;exitDx=0;exitDy=0;exitPerimeter=0;" edge="1" parent="1" source="Ita-3rXcEoMlcefwzyrw-45" target="Ita-3rXcEoMlcefwzyrw-7">
          <mxGeometry x="0.0029" width="50" height="50" relative="1" as="geometry">
            <mxPoint x="1025" y="1865" as="sourcePoint" />
            <mxPoint x="660" y="2125" as="targetPoint" />
            <mxPoint as="offset" />
          </mxGeometry>
        </mxCell>
        <mxCell id="Ita-3rXcEoMlcefwzyrw-85" value="" style="endArrow=none;html=1;rounded=0;entryX=0.951;entryY=0.264;entryDx=0;entryDy=0;exitX=0.5;exitY=0.5;exitDx=0;exitDy=0;exitPerimeter=0;entryPerimeter=0;" edge="1" parent="1" source="Ita-3rXcEoMlcefwzyrw-45" target="Ita-3rXcEoMlcefwzyrw-10">
          <mxGeometry x="0.0029" width="50" height="50" relative="1" as="geometry">
            <mxPoint x="1025" y="1865" as="sourcePoint" />
            <mxPoint x="660" y="2210" as="targetPoint" />
            <mxPoint as="offset" />
          </mxGeometry>
        </mxCell>
        <mxCell id="Ita-3rXcEoMlcefwzyrw-86" value="" style="endArrow=none;html=1;rounded=0;entryX=1;entryY=0.5;entryDx=0;entryDy=0;exitX=0;exitY=0.5;exitDx=0;exitDy=0;" edge="1" parent="1" source="Ita-3rXcEoMlcefwzyrw-41" target="Ita-3rXcEoMlcefwzyrw-54">
          <mxGeometry x="0.0029" width="50" height="50" relative="1" as="geometry">
            <mxPoint x="760" y="2285" as="sourcePoint" />
            <mxPoint x="660" y="2285" as="targetPoint" />
            <mxPoint as="offset" />
          </mxGeometry>
        </mxCell>
        <mxCell id="Ita-3rXcEoMlcefwzyrw-79" value="" style="endArrow=none;html=1;rounded=0;entryX=1;entryY=0.5;entryDx=0;entryDy=0;exitX=0;exitY=0.5;exitDx=0;exitDy=0;jumpStyle=gap;jumpSize=14;" edge="1" parent="1" source="Ita-3rXcEoMlcefwzyrw-41" target="Ita-3rXcEoMlcefwzyrw-10">
          <mxGeometry x="0.0029" width="50" height="50" relative="1" as="geometry">
            <mxPoint x="520.000000000003" y="2215" as="sourcePoint" />
            <mxPoint x="375" y="2045" as="targetPoint" />
            <mxPoint as="offset" />
          </mxGeometry>
        </mxCell>
        <mxCell id="Ita-3rXcEoMlcefwzyrw-87" value="Accept User for New Credit Card" style="ellipse;whiteSpace=wrap;html=1;" vertex="1" parent="1">
          <mxGeometry x="750" y="2320" width="140" height="70" as="geometry" />
        </mxCell>
        <mxCell id="Ita-3rXcEoMlcefwzyrw-88" value="" style="endArrow=none;html=1;rounded=0;entryX=1;entryY=0.5;entryDx=0;entryDy=0;exitX=0;exitY=0.5;exitDx=0;exitDy=0;" edge="1" parent="1">
          <mxGeometry x="0.0029" width="50" height="50" relative="1" as="geometry">
            <mxPoint x="750" y="2354.58" as="sourcePoint" />
            <mxPoint x="650" y="2354.58" as="targetPoint" />
            <mxPoint as="offset" />
          </mxGeometry>
        </mxCell>
        <mxCell id="Ita-3rXcEoMlcefwzyrw-89" value="" style="endArrow=none;html=1;rounded=0;entryX=1;entryY=0.5;entryDx=0;entryDy=0;exitX=0.5;exitY=0.5;exitDx=0;exitDy=0;exitPerimeter=0;" edge="1" parent="1" source="Ita-3rXcEoMlcefwzyrw-43" target="Ita-3rXcEoMlcefwzyrw-87">
          <mxGeometry x="0.0029" width="50" height="50" relative="1" as="geometry">
            <mxPoint x="760" y="2364.58" as="sourcePoint" />
            <mxPoint x="660" y="2364.58" as="targetPoint" />
            <mxPoint as="offset" />
          </mxGeometry>
        </mxCell>
      </root>
    </mxGraphModel>
  </diagram>
</mxfile>
